# xmcd
# Track frame offsets:
# 150
# 17798
# 38599
# 54191
# 65601
# 80818
#
# Disc length: 1274 seconds
# Revision: 0
# Processed by: cddbd v1.5.1PL2 Copyright (c) Steve Scherf et al.
# Submitted via: VisiTrax 2.9.10.228 - For more info visit www.synapsa.com
#
DISCID=4504f806
DTITLE=Gary Shearan - Two Buffalo
DYEAR=2006
DGENRE=Country
TTITLE0=Two Buffalo
TTITLE1=Lopez Valley
TTITLE2=Silly Duffer
TTITLE3=Tornado
TTITLE4=New Strings
TTITLE5=Undersky
EXTD=
EXTT0=
EXTT1=
EXTT2=
EXTT3=
EXTT4=
EXTT5=
PLAYORDER=
